<?xml version="1.0" encoding="iso-8859-1"?>
<!-- Generator: Adobe Illustrator 19.0.0, SVG Export Plug-In . SVG Version: 6.00 Build 0)  -->
<svg version="1.1" id="Layer_1" xmlns="http://www.w3.org/2000/svg" xmlns:xlink="http://www.w3.org/1999/xlink" x="0px" y="0px"
	 viewBox="0 0 512 512" style="enable-background:new 0 0 512 512;" xml:space="preserve">
<path style="fill:#8c8c8e;" d="M492.044,106.769c-18.482-21.97-52.604-30.931-117.77-30.931H137.721
	c-66.657,0-101.358,9.54-119.77,32.93C0,131.572,0,165.174,0,211.681v88.64c0,90.097,21.299,135.842,137.721,135.842h236.554
	c56.512,0,87.826-7.908,108.085-27.296C503.136,388.985,512,356.522,512,300.321v-88.64
	C512,162.636,510.611,128.836,492.044,106.769z M328.706,268.238l-107.418,56.14c-2.401,1.255-5.028,1.878-7.65,1.878
	c-2.97,0-5.933-0.799-8.557-2.388c-4.942-2.994-7.959-8.351-7.959-14.128V197.82c0-5.767,3.009-11.119,7.941-14.115
	c4.933-2.996,11.069-3.201,16.187-0.542l107.418,55.778c5.465,2.837,8.897,8.479,8.905,14.635
	C337.58,259.738,334.163,265.388,328.706,268.238z"/>
<g>
</g>
<g>
</g>
<g>
</g>
<g>
</g>
<g>
</g>
<g>
</g>
<g>
</g>
<g>
</g>
<g>
</g>
<g>
</g>
<g>
</g>
<g>
</g>
<g>
</g>
<g>
</g>
<g>
</g>
</svg>
